<mxfile host="app.diagrams.net" modified="2023-06-12T13:18:05.233Z" agent="Mozilla/5.0 (X11; Ubuntu; Linux x86_64; rv:109.0) Gecko/20100101 Firefox/114.0" etag="-6TL0uNfXfhd5-klJMaz" version="21.3.8" type="device">
  <diagram name="Page-1" id="F4Z-Leb8WxO9eprkBROh">
    <mxGraphModel dx="1176" dy="679" grid="1" gridSize="10" guides="1" tooltips="1" connect="1" arrows="1" fold="1" page="1" pageScale="1" pageWidth="850" pageHeight="1100" math="0" shadow="0">
      <root>
        <mxCell id="0" />
        <mxCell id="1" parent="0" />
        <mxCell id="hkSiyoPHmYX9CYbWdI6p-69" value="" style="rounded=0;whiteSpace=wrap;html=1;" vertex="1" parent="1">
          <mxGeometry x="240" y="200" width="520" height="320" as="geometry" />
        </mxCell>
        <mxCell id="hkSiyoPHmYX9CYbWdI6p-1" value="" style="rounded=0;whiteSpace=wrap;html=1;" vertex="1" parent="1">
          <mxGeometry x="400" y="200" width="160" height="80" as="geometry" />
        </mxCell>
        <mxCell id="hkSiyoPHmYX9CYbWdI6p-4" value="" style="rounded=0;whiteSpace=wrap;html=1;" vertex="1" parent="1">
          <mxGeometry x="240" y="200" width="160" height="80" as="geometry" />
        </mxCell>
        <mxCell id="hkSiyoPHmYX9CYbWdI6p-3" value="&lt;font style=&quot;font-size: 20px;&quot; face=&quot;Serif&quot;&gt;Striatum D1&lt;br&gt;&lt;/font&gt;" style="text;html=1;strokeColor=none;fillColor=none;align=center;verticalAlign=middle;whiteSpace=wrap;rounded=0;" vertex="1" parent="1">
          <mxGeometry x="240" y="200" width="160" height="50" as="geometry" />
        </mxCell>
        <mxCell id="hkSiyoPHmYX9CYbWdI6p-5" value="" style="rounded=0;whiteSpace=wrap;html=1;" vertex="1" parent="1">
          <mxGeometry x="400" y="40" width="160" height="80" as="geometry" />
        </mxCell>
        <mxCell id="hkSiyoPHmYX9CYbWdI6p-2" value="&lt;font style=&quot;font-size: 20px;&quot; face=&quot;Serif&quot;&gt;Cortex&lt;/font&gt;" style="text;html=1;strokeColor=none;fillColor=none;align=center;verticalAlign=middle;whiteSpace=wrap;rounded=0;" vertex="1" parent="1">
          <mxGeometry x="400" y="40" width="160" height="80" as="geometry" />
        </mxCell>
        <mxCell id="hkSiyoPHmYX9CYbWdI6p-6" value="" style="rounded=0;whiteSpace=wrap;html=1;" vertex="1" parent="1">
          <mxGeometry x="600" y="200" width="160" height="80" as="geometry" />
        </mxCell>
        <mxCell id="hkSiyoPHmYX9CYbWdI6p-7" value="" style="rounded=0;whiteSpace=wrap;html=1;" vertex="1" parent="1">
          <mxGeometry x="400" y="320" width="160" height="80" as="geometry" />
        </mxCell>
        <mxCell id="hkSiyoPHmYX9CYbWdI6p-8" value="" style="rounded=0;whiteSpace=wrap;html=1;" vertex="1" parent="1">
          <mxGeometry x="400" y="440" width="160" height="80" as="geometry" />
        </mxCell>
        <mxCell id="hkSiyoPHmYX9CYbWdI6p-9" value="" style="rounded=0;whiteSpace=wrap;html=1;" vertex="1" parent="1">
          <mxGeometry x="400" y="560" width="160" height="80" as="geometry" />
        </mxCell>
        <mxCell id="hkSiyoPHmYX9CYbWdI6p-10" value="&lt;font style=&quot;font-size: 20px;&quot; face=&quot;Serif&quot;&gt;Striatum D2&lt;br&gt;&lt;/font&gt;" style="text;html=1;strokeColor=none;fillColor=none;align=center;verticalAlign=middle;whiteSpace=wrap;rounded=0;" vertex="1" parent="1">
          <mxGeometry x="400" y="200" width="160" height="50" as="geometry" />
        </mxCell>
        <mxCell id="hkSiyoPHmYX9CYbWdI6p-11" value="&lt;font style=&quot;font-size: 20px;&quot; face=&quot;Serif&quot;&gt;STN&lt;/font&gt;" style="text;html=1;strokeColor=none;fillColor=none;align=center;verticalAlign=middle;whiteSpace=wrap;rounded=0;" vertex="1" parent="1">
          <mxGeometry x="600" y="200" width="160" height="50" as="geometry" />
        </mxCell>
        <mxCell id="hkSiyoPHmYX9CYbWdI6p-13" value="" style="endArrow=classic;html=1;rounded=0;exitX=0;exitY=0.5;exitDx=0;exitDy=0;entryX=0.5;entryY=0;entryDx=0;entryDy=0;edgeStyle=orthogonalEdgeStyle;strokeWidth=4;fillColor=#dae8fc;strokeColor=#6c8ebf;" edge="1" parent="1" source="hkSiyoPHmYX9CYbWdI6p-2" target="hkSiyoPHmYX9CYbWdI6p-3">
          <mxGeometry width="50" height="50" relative="1" as="geometry">
            <mxPoint x="490" y="350" as="sourcePoint" />
            <mxPoint x="540" y="300" as="targetPoint" />
          </mxGeometry>
        </mxCell>
        <mxCell id="hkSiyoPHmYX9CYbWdI6p-14" value="" style="endArrow=classic;html=1;rounded=0;exitX=0.5;exitY=1;exitDx=0;exitDy=0;entryX=0.5;entryY=0;entryDx=0;entryDy=0;strokeWidth=4;fillColor=#f8cecc;strokeColor=#b85450;" edge="1" parent="1" source="hkSiyoPHmYX9CYbWdI6p-2" target="hkSiyoPHmYX9CYbWdI6p-10">
          <mxGeometry width="50" height="50" relative="1" as="geometry">
            <mxPoint x="570" y="180" as="sourcePoint" />
            <mxPoint x="620" y="130" as="targetPoint" />
          </mxGeometry>
        </mxCell>
        <mxCell id="hkSiyoPHmYX9CYbWdI6p-16" value="" style="endArrow=classic;html=1;rounded=0;exitX=1;exitY=0.5;exitDx=0;exitDy=0;entryX=0.5;entryY=0;entryDx=0;entryDy=0;edgeStyle=orthogonalEdgeStyle;strokeWidth=4;fillColor=#d5e8d4;strokeColor=#82b366;" edge="1" parent="1" source="hkSiyoPHmYX9CYbWdI6p-2" target="hkSiyoPHmYX9CYbWdI6p-11">
          <mxGeometry width="50" height="50" relative="1" as="geometry">
            <mxPoint x="490" y="350" as="sourcePoint" />
            <mxPoint x="540" y="300" as="targetPoint" />
          </mxGeometry>
        </mxCell>
        <mxCell id="hkSiyoPHmYX9CYbWdI6p-17" value="&lt;font style=&quot;font-size: 20px;&quot; face=&quot;serif&quot;&gt;GPe&lt;/font&gt;" style="text;html=1;strokeColor=none;fillColor=none;align=center;verticalAlign=middle;whiteSpace=wrap;rounded=0;" vertex="1" parent="1">
          <mxGeometry x="400" y="320" width="160" height="50" as="geometry" />
        </mxCell>
        <mxCell id="hkSiyoPHmYX9CYbWdI6p-18" value="&lt;font style=&quot;font-size: 20px;&quot; face=&quot;serif&quot;&gt;SNr&lt;/font&gt;" style="text;html=1;strokeColor=none;fillColor=none;align=center;verticalAlign=middle;whiteSpace=wrap;rounded=0;" vertex="1" parent="1">
          <mxGeometry x="400" y="440" width="160" height="50" as="geometry" />
        </mxCell>
        <mxCell id="hkSiyoPHmYX9CYbWdI6p-19" value="&lt;font style=&quot;font-size: 20px;&quot; face=&quot;serif&quot;&gt;Thalamus&lt;/font&gt;" style="text;html=1;strokeColor=none;fillColor=none;align=center;verticalAlign=middle;whiteSpace=wrap;rounded=0;" vertex="1" parent="1">
          <mxGeometry x="400" y="560" width="160" height="50" as="geometry" />
        </mxCell>
        <mxCell id="hkSiyoPHmYX9CYbWdI6p-28" value="" style="ellipse;whiteSpace=wrap;html=1;aspect=fixed;" vertex="1" parent="1">
          <mxGeometry x="422.5" y="250" width="15" height="15" as="geometry" />
        </mxCell>
        <mxCell id="hkSiyoPHmYX9CYbWdI6p-29" value="" style="ellipse;whiteSpace=wrap;html=1;aspect=fixed;fillColor=#d80073;fontColor=#ffffff;strokeColor=#000000;" vertex="1" parent="1">
          <mxGeometry x="442.5" y="250" width="15" height="15" as="geometry" />
        </mxCell>
        <mxCell id="hkSiyoPHmYX9CYbWdI6p-30" value="" style="ellipse;whiteSpace=wrap;html=1;aspect=fixed;" vertex="1" parent="1">
          <mxGeometry x="462.5" y="250" width="15" height="15" as="geometry" />
        </mxCell>
        <mxCell id="hkSiyoPHmYX9CYbWdI6p-31" value="" style="ellipse;whiteSpace=wrap;html=1;aspect=fixed;fillColor=#d80073;fontColor=#ffffff;strokeColor=#000000;" vertex="1" parent="1">
          <mxGeometry x="482.5" y="250" width="15" height="15" as="geometry" />
        </mxCell>
        <mxCell id="hkSiyoPHmYX9CYbWdI6p-32" value="" style="ellipse;whiteSpace=wrap;html=1;aspect=fixed;" vertex="1" parent="1">
          <mxGeometry x="502.5" y="250" width="15" height="15" as="geometry" />
        </mxCell>
        <mxCell id="hkSiyoPHmYX9CYbWdI6p-33" value="" style="ellipse;whiteSpace=wrap;html=1;aspect=fixed;" vertex="1" parent="1">
          <mxGeometry x="522.5" y="250" width="15" height="15" as="geometry" />
        </mxCell>
        <mxCell id="hkSiyoPHmYX9CYbWdI6p-34" value="" style="ellipse;whiteSpace=wrap;html=1;aspect=fixed;" vertex="1" parent="1">
          <mxGeometry x="262.5" y="250" width="15" height="15" as="geometry" />
        </mxCell>
        <mxCell id="hkSiyoPHmYX9CYbWdI6p-35" value="" style="ellipse;whiteSpace=wrap;html=1;aspect=fixed;" vertex="1" parent="1">
          <mxGeometry x="282.5" y="250" width="15" height="15" as="geometry" />
        </mxCell>
        <mxCell id="hkSiyoPHmYX9CYbWdI6p-36" value="" style="ellipse;whiteSpace=wrap;html=1;aspect=fixed;fillColor=#d80073;fontColor=#ffffff;strokeColor=#000000;" vertex="1" parent="1">
          <mxGeometry x="302.5" y="250" width="15" height="15" as="geometry" />
        </mxCell>
        <mxCell id="hkSiyoPHmYX9CYbWdI6p-37" value="" style="ellipse;whiteSpace=wrap;html=1;aspect=fixed;" vertex="1" parent="1">
          <mxGeometry x="322.5" y="250" width="15" height="15" as="geometry" />
        </mxCell>
        <mxCell id="hkSiyoPHmYX9CYbWdI6p-38" value="" style="ellipse;whiteSpace=wrap;html=1;aspect=fixed;" vertex="1" parent="1">
          <mxGeometry x="342.5" y="250" width="15" height="15" as="geometry" />
        </mxCell>
        <mxCell id="hkSiyoPHmYX9CYbWdI6p-39" value="" style="ellipse;whiteSpace=wrap;html=1;aspect=fixed;" vertex="1" parent="1">
          <mxGeometry x="362.5" y="250" width="15" height="15" as="geometry" />
        </mxCell>
        <mxCell id="hkSiyoPHmYX9CYbWdI6p-40" value="" style="ellipse;whiteSpace=wrap;html=1;aspect=fixed;fillColor=#d80073;fontColor=#ffffff;strokeColor=#000000;" vertex="1" parent="1">
          <mxGeometry x="622.5" y="250" width="15" height="15" as="geometry" />
        </mxCell>
        <mxCell id="hkSiyoPHmYX9CYbWdI6p-41" value="" style="ellipse;whiteSpace=wrap;html=1;aspect=fixed;fillColor=#d80073;fontColor=#ffffff;strokeColor=#000000;" vertex="1" parent="1">
          <mxGeometry x="642.5" y="250" width="15" height="15" as="geometry" />
        </mxCell>
        <mxCell id="hkSiyoPHmYX9CYbWdI6p-42" value="" style="ellipse;whiteSpace=wrap;html=1;aspect=fixed;" vertex="1" parent="1">
          <mxGeometry x="662.5" y="250" width="15" height="15" as="geometry" />
        </mxCell>
        <mxCell id="hkSiyoPHmYX9CYbWdI6p-43" value="" style="ellipse;whiteSpace=wrap;html=1;aspect=fixed;fillColor=#d80073;fontColor=#ffffff;strokeColor=#000000;" vertex="1" parent="1">
          <mxGeometry x="682.5" y="250" width="15" height="15" as="geometry" />
        </mxCell>
        <mxCell id="hkSiyoPHmYX9CYbWdI6p-44" value="" style="ellipse;whiteSpace=wrap;html=1;aspect=fixed;fillColor=#d80073;fontColor=#ffffff;strokeColor=#000000;" vertex="1" parent="1">
          <mxGeometry x="702.5" y="250" width="15" height="15" as="geometry" />
        </mxCell>
        <mxCell id="hkSiyoPHmYX9CYbWdI6p-45" value="" style="ellipse;whiteSpace=wrap;html=1;aspect=fixed;fillColor=#d80073;fontColor=#ffffff;strokeColor=#000000;" vertex="1" parent="1">
          <mxGeometry x="722.5" y="250" width="15" height="15" as="geometry" />
        </mxCell>
        <mxCell id="hkSiyoPHmYX9CYbWdI6p-46" value="" style="ellipse;whiteSpace=wrap;html=1;aspect=fixed;" vertex="1" parent="1">
          <mxGeometry x="422.5" y="370" width="15" height="15" as="geometry" />
        </mxCell>
        <mxCell id="hkSiyoPHmYX9CYbWdI6p-47" value="" style="ellipse;whiteSpace=wrap;html=1;aspect=fixed;" vertex="1" parent="1">
          <mxGeometry x="442.5" y="370" width="15" height="15" as="geometry" />
        </mxCell>
        <mxCell id="hkSiyoPHmYX9CYbWdI6p-48" value="" style="ellipse;whiteSpace=wrap;html=1;aspect=fixed;" vertex="1" parent="1">
          <mxGeometry x="462.5" y="370" width="15" height="15" as="geometry" />
        </mxCell>
        <mxCell id="hkSiyoPHmYX9CYbWdI6p-49" value="" style="ellipse;whiteSpace=wrap;html=1;aspect=fixed;" vertex="1" parent="1">
          <mxGeometry x="482.5" y="370" width="15" height="15" as="geometry" />
        </mxCell>
        <mxCell id="hkSiyoPHmYX9CYbWdI6p-50" value="" style="ellipse;whiteSpace=wrap;html=1;aspect=fixed;" vertex="1" parent="1">
          <mxGeometry x="502.5" y="370" width="15" height="15" as="geometry" />
        </mxCell>
        <mxCell id="hkSiyoPHmYX9CYbWdI6p-51" value="" style="ellipse;whiteSpace=wrap;html=1;aspect=fixed;" vertex="1" parent="1">
          <mxGeometry x="522.5" y="370" width="15" height="15" as="geometry" />
        </mxCell>
        <mxCell id="hkSiyoPHmYX9CYbWdI6p-64" value="" style="endArrow=oval;html=1;rounded=0;exitX=0.5;exitY=1;exitDx=0;exitDy=0;entryX=0;entryY=0.75;entryDx=0;entryDy=0;edgeStyle=orthogonalEdgeStyle;strokeWidth=4;fillColor=#dae8fc;strokeColor=#6c8ebf;endFill=1;" edge="1" parent="1" source="hkSiyoPHmYX9CYbWdI6p-4" target="hkSiyoPHmYX9CYbWdI6p-18">
          <mxGeometry width="50" height="50" relative="1" as="geometry">
            <mxPoint x="650" y="390" as="sourcePoint" />
            <mxPoint x="700" y="340" as="targetPoint" />
          </mxGeometry>
        </mxCell>
        <mxCell id="hkSiyoPHmYX9CYbWdI6p-65" value="" style="endArrow=oval;html=1;rounded=0;exitX=0.5;exitY=1;exitDx=0;exitDy=0;entryX=0.5;entryY=0;entryDx=0;entryDy=0;strokeWidth=4;endFill=1;fillColor=#f8cecc;strokeColor=#b85450;" edge="1" parent="1" source="hkSiyoPHmYX9CYbWdI6p-1" target="hkSiyoPHmYX9CYbWdI6p-17">
          <mxGeometry width="50" height="50" relative="1" as="geometry">
            <mxPoint x="650" y="390" as="sourcePoint" />
            <mxPoint x="700" y="340" as="targetPoint" />
          </mxGeometry>
        </mxCell>
        <mxCell id="hkSiyoPHmYX9CYbWdI6p-66" value="" style="endArrow=oval;html=1;rounded=0;exitX=0.5;exitY=1;exitDx=0;exitDy=0;entryX=0.5;entryY=0;entryDx=0;entryDy=0;strokeWidth=4;endFill=1;fillColor=#f8cecc;strokeColor=#b85450;" edge="1" parent="1" source="hkSiyoPHmYX9CYbWdI6p-7" target="hkSiyoPHmYX9CYbWdI6p-18">
          <mxGeometry width="50" height="50" relative="1" as="geometry">
            <mxPoint x="650" y="390" as="sourcePoint" />
            <mxPoint x="700" y="340" as="targetPoint" />
          </mxGeometry>
        </mxCell>
        <mxCell id="hkSiyoPHmYX9CYbWdI6p-67" value="" style="endArrow=classic;html=1;rounded=0;exitX=0.5;exitY=1;exitDx=0;exitDy=0;entryX=1;entryY=0.75;entryDx=0;entryDy=0;edgeStyle=orthogonalEdgeStyle;strokeWidth=4;fillColor=#d5e8d4;strokeColor=#82b366;" edge="1" parent="1" source="hkSiyoPHmYX9CYbWdI6p-6" target="hkSiyoPHmYX9CYbWdI6p-18">
          <mxGeometry width="50" height="50" relative="1" as="geometry">
            <mxPoint x="650" y="390" as="sourcePoint" />
            <mxPoint x="700" y="340" as="targetPoint" />
          </mxGeometry>
        </mxCell>
        <mxCell id="hkSiyoPHmYX9CYbWdI6p-68" value="" style="endArrow=oval;html=1;rounded=0;exitX=0.5;exitY=1;exitDx=0;exitDy=0;entryX=0.5;entryY=0;entryDx=0;entryDy=0;strokeWidth=4;endFill=1;" edge="1" parent="1" source="hkSiyoPHmYX9CYbWdI6p-8" target="hkSiyoPHmYX9CYbWdI6p-19">
          <mxGeometry width="50" height="50" relative="1" as="geometry">
            <mxPoint x="650" y="470" as="sourcePoint" />
            <mxPoint x="700" y="420" as="targetPoint" />
          </mxGeometry>
        </mxCell>
        <mxCell id="hkSiyoPHmYX9CYbWdI6p-83" value="" style="ellipse;whiteSpace=wrap;html=1;aspect=fixed;fillColor=#d80073;fontColor=#ffffff;strokeColor=#000000;" vertex="1" parent="1">
          <mxGeometry x="422.5" y="490" width="15" height="15" as="geometry" />
        </mxCell>
        <mxCell id="hkSiyoPHmYX9CYbWdI6p-84" value="" style="ellipse;whiteSpace=wrap;html=1;aspect=fixed;fillColor=#d80073;fontColor=#ffffff;strokeColor=#000000;" vertex="1" parent="1">
          <mxGeometry x="442.5" y="490" width="15" height="15" as="geometry" />
        </mxCell>
        <mxCell id="hkSiyoPHmYX9CYbWdI6p-85" value="" style="ellipse;whiteSpace=wrap;html=1;aspect=fixed;" vertex="1" parent="1">
          <mxGeometry x="462.5" y="490" width="15" height="15" as="geometry" />
        </mxCell>
        <mxCell id="hkSiyoPHmYX9CYbWdI6p-86" value="" style="ellipse;whiteSpace=wrap;html=1;aspect=fixed;fillColor=#d80073;fontColor=#ffffff;strokeColor=#000000;" vertex="1" parent="1">
          <mxGeometry x="482.5" y="490" width="15" height="15" as="geometry" />
        </mxCell>
        <mxCell id="hkSiyoPHmYX9CYbWdI6p-87" value="" style="ellipse;whiteSpace=wrap;html=1;aspect=fixed;fillColor=#d80073;fontColor=#ffffff;strokeColor=#000000;" vertex="1" parent="1">
          <mxGeometry x="502.5" y="490" width="15" height="15" as="geometry" />
        </mxCell>
        <mxCell id="hkSiyoPHmYX9CYbWdI6p-88" value="" style="ellipse;whiteSpace=wrap;html=1;aspect=fixed;fillColor=#d80073;fontColor=#ffffff;strokeColor=#000000;" vertex="1" parent="1">
          <mxGeometry x="522.5" y="490" width="15" height="15" as="geometry" />
        </mxCell>
        <mxCell id="hkSiyoPHmYX9CYbWdI6p-89" value="" style="ellipse;whiteSpace=wrap;html=1;aspect=fixed;" vertex="1" parent="1">
          <mxGeometry x="422.5" y="610" width="15" height="15" as="geometry" />
        </mxCell>
        <mxCell id="hkSiyoPHmYX9CYbWdI6p-90" value="" style="ellipse;whiteSpace=wrap;html=1;aspect=fixed;" vertex="1" parent="1">
          <mxGeometry x="442.5" y="610" width="15" height="15" as="geometry" />
        </mxCell>
        <mxCell id="hkSiyoPHmYX9CYbWdI6p-91" value="" style="ellipse;whiteSpace=wrap;html=1;aspect=fixed;fillColor=#d80073;fontColor=#ffffff;strokeColor=#000000;" vertex="1" parent="1">
          <mxGeometry x="462.5" y="610" width="15" height="15" as="geometry" />
        </mxCell>
        <mxCell id="hkSiyoPHmYX9CYbWdI6p-92" value="" style="ellipse;whiteSpace=wrap;html=1;aspect=fixed;" vertex="1" parent="1">
          <mxGeometry x="482.5" y="610" width="15" height="15" as="geometry" />
        </mxCell>
        <mxCell id="hkSiyoPHmYX9CYbWdI6p-93" value="" style="ellipse;whiteSpace=wrap;html=1;aspect=fixed;" vertex="1" parent="1">
          <mxGeometry x="502.5" y="610" width="15" height="15" as="geometry" />
        </mxCell>
        <mxCell id="hkSiyoPHmYX9CYbWdI6p-94" value="" style="ellipse;whiteSpace=wrap;html=1;aspect=fixed;" vertex="1" parent="1">
          <mxGeometry x="522.5" y="610" width="15" height="15" as="geometry" />
        </mxCell>
        <mxCell id="hkSiyoPHmYX9CYbWdI6p-96" value="&lt;font style=&quot;font-size: 20px;&quot; face=&quot;serif&quot;&gt;Basal Ganglia&lt;/font&gt;" style="text;html=1;strokeColor=none;fillColor=none;align=center;verticalAlign=middle;whiteSpace=wrap;rounded=0;" vertex="1" parent="1">
          <mxGeometry x="610" y="490" width="150" height="30" as="geometry" />
        </mxCell>
      </root>
    </mxGraphModel>
  </diagram>
</mxfile>
